<svg width="198" height="98" fill="none" xmlns="http://www.w3.org/2000/svg"><path d="M0 55.843v-.2h6.626c2.233 0 3.697 1.496 3.697 3.715 0 1.546-.645 2.693-1.737 3.316 1.588.449 2.556 1.77 2.556 3.664 0 2.244-1.489 3.715-3.697 3.715H0v-.224l.074-.025a1.707 1.707 0 001.142-1.596v-10.77c0-.723-.447-1.346-1.142-1.595H0zm4.765 6.731c1.86 0 3.101-1.246 3.101-3.116 0-1.945-1.24-3.191-3.101-3.191H3.697v6.307h1.068zm-1.068.598v6.283h1.886c1.862 0 3.102-1.247 3.102-3.166 0-1.87-1.24-3.117-3.102-3.117H3.697zm19.854 6.183c-.223.698-.72 1.147-1.737 1.147-1.29 0-1.836-.698-1.836-1.82-.67 1.172-1.862 1.82-3.3 1.82-2.259 0-3.525-1.52-3.525-4.387V62.2c0-.698-.446-1.346-1.141-1.595l-.075-.025v-.2l3.5-.598h.198v6.333c0 1.82.174 3.515 1.663 3.54 1.216 0 2.605-1.147 2.704-3.291V62.25c0-.748-.446-1.396-1.141-1.62l-.075-.025v-.224l3.5-.599h.198v8.551c0 1.122.025 1.521.273 1.521.174 0 .298-.2.422-.499h.372zm8.659-1.62c0 1.546-1.142 2.767-3.673 2.767-1.44 0-2.407-.399-2.978-.648a1.003 1.003 0 00-.422-.125c-.174 0-.273.1-.273.35h-.223v-2.843h.322c.348 1.322 1.39 2.643 3.152 2.643 1.265 0 1.886-.648 1.886-1.446 0-2.344-5.36-3.241-5.36-6.208 0-1.52 1.414-2.842 3.598-2.842 1.29 0 2.06.449 2.655.648.174.05.298.075.422.075.174 0 .273-.075.273-.324h.198V62.2h-.322c-.348-1.32-1.415-2.218-2.879-2.218-1.34 0-1.762.797-1.762 1.37 0 2.045 5.385 2.967 5.385 6.383zm5.93 2.144v.224h-4.913v-.224l.074-.025c.695-.225 1.142-.898 1.142-1.596V62.2c0-.748-.447-1.396-1.142-1.595l-.074-.025v-.2l3.498-.573h.199v8.476c0 .698.447 1.371 1.142 1.596h.074zm-3.946-12.515a1.552 1.552 0 011.142-1.87c.844-.2 1.663.324 1.861 1.147a1.552 1.552 0 01-1.142 1.87c-.843.174-1.662-.324-1.86-1.147zm16.381 12.515v.224H45.66v-.224l.075-.025c.695-.225 1.141-.848 1.141-1.596v-4.512c0-1.82-.173-3.54-1.86-3.54-1.54-.025-2.507 1.396-2.507 3.54v4.512c0 .698.471 1.371 1.142 1.596l.074.025v.224h-4.913v-.224l.074-.025c.695-.225 1.141-.898 1.141-1.596V62.2c0-.748-.446-1.396-1.141-1.595l-.075-.025v-.2l3.5-.573h.198v1.346c.596-1.047 1.613-1.77 3.226-1.77 2.357 0 3.623 1.521 3.623 4.388v4.512A1.67 1.67 0 0050.5 69.88h.075zm9.652-2.244h.223c-.893 2.269-2.358 2.842-4.318 2.842-2.978 0-4.913-2.069-4.913-5.335 0-3.041 1.638-5.808 4.839-5.808 2.977 0 4.615 2.418 4.615 5.559H53.9c.124 3.29 1.39 4.761 3.052 4.761 1.861.026 2.755-1.096 3.276-2.019zm-6.353-3.316h4.516c-.124-2.567-.72-4.337-2.357-4.337-1.464.025-2.159 1.52-2.159 4.338zm15.66 3.416c0 1.546-1.142 2.767-3.673 2.767-1.44 0-2.407-.399-2.978-.648a1.003 1.003 0 00-.422-.125c-.174 0-.273.1-.273.35h-.223v-2.843h.322c.348 1.322 1.39 2.643 3.152 2.643 1.266 0 1.886-.648 1.886-1.446 0-2.344-5.36-3.241-5.36-6.208 0-1.52 1.414-2.842 3.598-2.842 1.29 0 2.06.449 2.655.648.174.05.298.075.422.075.174 0 .273-.075.273-.324h.199V62.2h-.323c-.347-1.32-1.415-2.218-2.879-2.218-1.34 0-1.761.797-1.761 1.37.024 2.045 5.385 2.967 5.385 6.383zm8.933 0c0 1.546-1.141 2.767-3.673 2.767-1.439 0-2.407-.399-2.977-.648a1.003 1.003 0 00-.422-.125c-.174 0-.273.1-.273.35h-.224v-2.843h.323c.347 1.322 1.39 2.643 3.152 2.643 1.265 0 1.885-.648 1.885-1.446 0-2.344-5.36-3.241-5.36-6.208 0-1.52 1.415-2.842 3.599-2.842 1.29 0 2.06.449 2.655.648.174.05.298.075.422.075.173 0 .273-.075.273-.324h.198V62.2h-.322c-.348-1.32-1.415-2.218-2.879-2.218-1.34 0-1.762.797-1.762 1.37.025 2.045 5.385 2.967 5.385 6.383zm11.387 1.795a.992.992 0 00-.372.075c-.943.473-1.96.673-3.028.673-4.194 0-6.774-3.266-6.774-7.33 0-4.063 2.63-7.529 6.824-7.529 1.067 0 2.06.225 2.978.649.149.074.273.1.421.1.323 0 .546-.175.546-.55h.199v3.79h-.199c-.173-1.745-1.687-3.39-3.995-3.39-3.523 0-4.293 3.914-4.293 6.756 0 2.792.794 6.856 4.244 6.856a4.025 4.025 0 004.02-3.54l.198.024v3.914h-.198c-.025-.299-.273-.498-.571-.498zm6.676.349v.224h-4.913v-.224l.075-.025c.695-.225 1.141-.898 1.141-1.596V57.04c0-.748-.447-1.396-1.141-1.62l-.075-.026v-.224l3.5-.573h.198v13.636c0 .698.471 1.372 1.141 1.596l.075.05zm11.912-.524c-.224.698-.72 1.147-1.737 1.147-1.291 0-1.837-.698-1.837-1.82-.67 1.172-1.861 1.82-3.3 1.82-2.258 0-3.524-1.52-3.524-4.387V62.2c0-.698-.447-1.346-1.141-1.595l-.075-.025v-.2l3.499-.598h.199v6.333c0 1.82.173 3.515 1.662 3.54 1.216 0 2.606-1.147 2.705-3.291V62.25c0-.748-.447-1.396-1.141-1.62l-.075-.025v-.224l3.499-.599h.199v8.551c0 1.122.024 1.521.273 1.521.173 0 .297-.2.421-.499h.373zm11.091-4.612c0 3.615-2.01 5.759-4.144 5.759-1.117 0-1.96-.573-2.606-1.047v.548l-.099.1h-3.598v-.224l.074-.025c.695-.225 1.142-.898 1.142-1.596V57.04c0-.748-.447-1.396-1.142-1.62l-.074-.026v-.224l3.499-.573h.198v6.058c.472-.748 1.266-1.297 2.507-1.297 2.308 0 4.243 1.82 4.243 5.385zm-2.457.175c0-3.74-1.191-4.936-2.307-4.936-.745 0-1.961.548-1.961 3.215v5.535c.472.474 1.191.947 1.961.947 1.414 0 2.307-1.545 2.307-4.761zm19.307 4.961v.224h-5.062v-.224l.074-.025c.695-.25 1.018-.848.794-1.57l-.595-1.92h-4.492l-.595 1.92c-.224.697.074 1.32.794 1.57l.074.025v.224h-3.102v-.224l.075-.025a2.621 2.621 0 001.538-1.546l3.946-12.64h1.017l3.946 12.64a2.534 2.534 0 001.539 1.57h.049zm-4.963-4.139l-2.059-6.606-2.06 6.606h4.119zm14.864-5.958v.2h-.025c-.719 0-1.389.473-1.638 1.147l-3.548 8.974h-1.291l-3.424-8.974a1.75 1.75 0 00-1.638-1.147h-.025v-.2h5.087v.2h-.024c-.72 0-1.043.473-.794 1.147l2.456 6.407 2.531-6.407c.273-.674-.049-1.147-.744-1.147h-.025v-.2h3.102zm5.336 10.097v.224h-4.913v-.224l.074-.025c.695-.225 1.142-.898 1.142-1.596V62.2c0-.748-.447-1.396-1.142-1.595l-.074-.025v-.2l3.499-.573h.198v8.476a1.72 1.72 0 001.142 1.596h.074zm-3.945-12.515a1.552 1.552 0 011.141-1.87 1.552 1.552 0 01.72 3.016c-.844.175-1.663-.323-1.861-1.146zm14.788 11.991c-.248.748-.67 1.147-1.588 1.147-.993 0-1.613-.474-1.861-1.496-.497.748-1.464 1.496-3.226 1.496-1.812 0-3.425-.798-3.425-2.618 0-3.49 6.03-3.091 6.527-5.41-.1-1.221-.447-2.642-1.663-2.642-.496 0-.769.224-.844.274-.546.474-.62 1.147-.595 1.72.074.998-.397 1.396-.695 1.546-.174.075-.323.125-.472.125-.397 0-.719-.25-.893-.574-.322-.648-.05-1.92.918-2.692.645-.524 1.613-.848 2.804-.848 2.581-.025 3.896 1.396 3.896 3.964v5.011c0 1.122.025 1.52.273 1.52.174 0 .323-.199.422-.498h.422v-.025zm-3.573-5.709c-1.291 1.346-4.095 1.97-4.095 4.313 0 .947.472 1.895 1.613 1.895 1.291 0 2.482-1.247 2.482-2.269v-3.939zm10.325 3.989c-.596 2.094-1.489 2.842-2.953 2.743-1.638-.125-2.531-1.247-2.531-4.263V60.38h-1.415v-.599h1.415c1.216 0 1.861-1.047 1.861-2.692h.596v2.692h2.109v.599h-2.109v5.734c0 2.318.372 3.739 1.364 3.44.323-.1.819-.424 1.464-1.895h.199v-.025zm5.484 2.244v.224h-4.914v-.224l.075-.025c.694-.225 1.141-.898 1.141-1.596V62.2c0-.748-.447-1.396-1.141-1.595l-.075-.025v-.2l3.499-.573h.199v8.476c0 .698.471 1.371 1.141 1.596h.075zm-3.946-12.515a1.552 1.552 0 011.141-1.87c.844-.2 1.663.324 1.862 1.147a1.553 1.553 0 01-1.142 1.87c-.844.174-1.663-.324-1.861-1.147zm14.839 7.554c0 3.266-2.307 5.584-5.112 5.584-2.828 0-5.136-2.318-5.136-5.584 0-3.241 2.308-5.56 5.136-5.56 2.805 0 5.112 2.319 5.112 5.56zm-2.481 0c0-3.74-1.191-4.936-2.655-4.936-1.464 0-2.68 1.196-2.68 4.936 0 3.764 1.191 4.936 2.68 4.936 1.489.025 2.655-1.172 2.655-4.936zm14.89 4.961v.224h-4.914v-.224l.075-.025c.695-.225 1.141-.848 1.141-1.596v-4.512c0-1.82-.174-3.54-1.861-3.54-1.538-.025-2.506 1.396-2.506 3.54v4.512c0 .698.471 1.371 1.141 1.596l.075.025v.224h-4.914v-.224l.075-.025c.695-.225 1.141-.898 1.141-1.596V62.2c0-.748-.446-1.396-1.141-1.595l-.075-.025v-.2l3.499-.573h.199v1.346c.595-1.047 1.613-1.77 3.226-1.77 2.357 0 3.623 1.521 3.623 4.388v4.512a1.67 1.67 0 001.141 1.596h.075zM41.343 95.258c0 .947.62 1.82 1.539 2.119l.1.05v.299h-6.627v-.3l.1-.05a2.213 2.213 0 001.538-2.118V80.773c0-.972-.595-1.82-1.538-2.144l-.1-.05v-.274h10.001c3.003 0 4.988 1.995 4.988 5.011 0 3.091-1.985 5.11-4.988 5.11h-5.038v6.832h.025zm2.556-7.654c2.507 0 4.17-1.67 4.17-4.188 0-2.618-1.663-4.288-4.17-4.288h-2.53v8.476h2.53zm14.692-8.974a2.276 2.276 0 00-1.538 2.143v16.105h5.087c1.985 0 3.822-1.222 4.541-3.041l.1-.3h.297l-.844 4.164H52.09v-.3l.1-.024a2.267 2.267 0 001.538-2.144v-14.46c0-.972-.596-1.82-1.539-2.144l-.1-.05v-.274h6.627v.274l-.125.05zm24.741 18.797v.299h-6.8v-.3l.1-.024c.943-.325 1.365-1.147 1.067-2.094l-.819-2.568h-6.055l-.819 2.568c-.297.947.1 1.77 1.068 2.094l.099.025v.299h-4.17v-.3l.1-.024c.943-.325 1.737-1.147 2.06-2.094l5.285-17.003h1.365l5.31 16.977a3.315 3.315 0 002.06 2.095l.15.05zm-6.675-5.535l-2.78-8.875-2.754 8.875h5.534zm19.033-9.698c-.769-1.845-2.58-3.066-4.54-3.066h-.894v16.105c0 .997.645 1.844 1.538 2.144l.1.025v.299h-6.626v-.3l.124-.024a2.241 2.241 0 001.514-2.144V79.128h-.894c-1.96 0-3.772 1.221-4.54 3.066l-.1.275h-.298l.844-4.139h13.3l.845 4.139h-.273l-.1-.275zm7.543-3.54a2.221 2.221 0 00-1.538 2.12v14.484c0 .947.62 1.82 1.538 2.144l.1.025v.299h-6.626v-.3l.1-.024a2.267 2.267 0 001.538-2.144V80.773a2.19 2.19 0 00-1.539-2.119l-.099-.075v-.274h6.626v.274l-.1.075zm15.336 2.119c0-.972-.596-1.87-1.539-2.144l-.099-.05v-.274h4.144v.274l-.099.05c-.943.3-1.538 1.172-1.538 2.144v16.928h-1.737l-10.745-18.025v15.557c0 .947.595 1.82 1.538 2.119l.099.05v.299h-4.144v-.3l.099-.05a2.213 2.213 0 001.539-2.118v-14.46c0-.972-.596-1.87-1.539-2.144l-.099-.05v-.274h5.509l8.636 14.46V80.773h-.025zm17.467 0c0-.972-.595-1.82-1.538-2.119l-.099-.075v-.274h4.144v.274l-.1.075a2.191 2.191 0 00-1.538 2.12v10.594c0 4.064-2.308 6.632-6.576 6.632-3.375 0-6.75-1.62-6.75-7.728v-9.499c0-.972-.595-1.82-1.538-2.119l-.1-.075v-.274h6.626v.274l-.099.075a2.222 2.222 0 00-1.539 2.12v9.498c0 6.88 3.772 6.556 4.715 6.581 1.688 0 4.467-1.122 4.467-5.484V80.772h-.075zm20.622-.149l-6.576 17.102h-1.787l-6.328-17.152v14.709c0 .997.596 1.844 1.539 2.144l.099.024v.3h-4.144v-.3l.099-.024c.943-.3 1.539-1.147 1.539-2.145V80.773c0-.997-.596-1.87-1.539-2.144l-.099-.05v-.274h5.186l5.881 15.93 6.13-15.93h4.963v.274l-.099.05c-.943.3-1.539 1.147-1.539 2.144v14.485c0 .997.596 1.844 1.539 2.144l.099.025v.299h-6.626v-.3l.099-.024a2.229 2.229 0 001.539-2.144V80.624h.025zm-47.419-55.819l-3.127 1.297-1.861-4.488 2.606-.773c-1.985-2.169-4.765-3.515-7.867-3.515-3.102 0-5.88 1.346-7.866 3.515l2.606.773-1.862 4.488-3.126-1.297a11.999 11.999 0 00-.695 4.039c0 6.357 4.889 11.493 10.943 11.493 6.055 0 10.944-5.16 10.944-11.493.025-1.421-.248-2.767-.695-4.039zM99.015 36.822c-2.283 0-4.144-1.87-4.144-4.164 0-2.293 1.861-4.163 4.144-4.163 2.283 0 4.144 1.87 4.144 4.163-.025 2.319-1.861 4.163-4.144 4.163zm-.248-9.723c-2.829 0-5.583-.549-5.583-.549l1.662-4.637s1.985.549 3.995.549c2.11 0 4.269-.549 4.269-.549l1.712 4.637c0-.025-3.077.549-6.055.549z" fill="#fff"/><path d="M108.99 36.523c-.744.997-1.588 1.894-2.581 2.642a12.614 12.614 0 01-4.392 2.12c-.968.248-1.96.398-3.003.398a13.216 13.216 0 01-3.002-.399 12.619 12.619 0 01-4.393-2.119 12.38 12.38 0 01-2.58-2.642s-.522 3.59 2.084 6.531h15.783c2.605-2.967 2.084-6.532 2.084-6.532zm-7.371-20.069l-1.34-15.158A1.28 1.28 0 0099.013 0a1.3 1.3 0 00-1.29 1.296l-1.34 15.158c.844-.2 1.712-.324 2.63-.324.894-.025 1.762.1 2.606.324z" fill="#fff"/><path fill-rule="evenodd" clip-rule="evenodd" d="M87.055 23.185c.372.1.62.473.521.872l-.645 2.618a.718.718 0 01-.868.523.721.721 0 01-.522-.872l.646-2.618a.71.71 0 01.868-.523z" fill="#fff"/><path d="M79.535 16.703c-3.499 0-6.328 2.842-6.328 6.357s2.829 6.357 6.328 6.357 6.328-2.842 6.328-6.357-2.83-6.357-6.328-6.357zm.025 9.748a3.333 3.333 0 01-3.326-3.34 3.333 3.333 0 013.326-3.341 3.333 3.333 0 013.325 3.34c.025 1.845-1.464 3.34-3.325 3.34z" fill="#fff"/><path fill-rule="evenodd" clip-rule="evenodd" d="M110.949 23.185a.722.722 0 00-.521.872l.645 2.618c.1.374.472.623.869.523.372-.1.62-.473.521-.872l-.645-2.618a.71.71 0 00-.869-.523z" fill="#fff"/><path d="M112.141 23.06c0 3.515 2.829 6.357 6.327 6.357 3.499 0 6.328-2.842 6.328-6.357s-2.829-6.357-6.328-6.357c-3.498 0-6.327 2.842-6.327 6.357zm2.953.05a3.333 3.333 0 013.325-3.34 3.333 3.333 0 013.325 3.34 3.333 3.333 0 01-3.325 3.34 3.333 3.333 0 01-3.325-3.34z" fill="#fff"/><path fill-rule="evenodd" clip-rule="evenodd" d="M76.184 4.114l19.356-.275c.72.025.869 1.122.869 1.496-.025 1.022-.67 1.795-1.762 1.77L76.184 5.41a.658.658 0 01-.645-.648c0-.35.273-.648.645-.648zm45.659 0l-19.356-.275c-.744.025-.893 1.147-.893 1.496.025 1.022.67 1.795 1.762 1.77l18.487-1.695a.66.66 0 00.645-.648c-.025-.35-.298-.648-.645-.648z" fill="#fff"/><path d="M87.053 38.492c-.149-1.246-.844-2.119-1.563-2.717-.82-.673-1.886-.947-2.953-.873-6.576.524-37.819 2.842-51.293 1.646-6.055-.549-9.604-1.346-11.564-1.945a4.246 4.246 0 01-2.755-2.692c-.124-.324-.223-.649-.347-.973-.124-.324-.223-.673-.347-.997-.1-.299-.224-.598-.323-.897-.05-.125-.1-.25-.124-.4-.05-.149-.1-.273-.149-.398a1.272 1.272 0 00-.57-.623c-.2-.1-.423-.15-.646-.15a2.06 2.06 0 00-.546.075c-.074.025-.174.05-.248.075 0 4.612.943 6.207 1.787 8.002.446.948 1.216 1.696 2.159 2.07 10.323 4.213 53.476 5.16 65.115 5.334 2.481.05 4.665-2.044 4.367-4.537zm23.92 0c.149-1.246.844-2.119 1.564-2.717.818-.673 1.885-.947 2.953-.873 6.576.524 37.818 2.842 51.292 1.646 6.055-.549 9.604-1.347 11.564-1.945a4.266 4.266 0 002.755-2.667c.124-.325.223-.649.347-.973.124-.324.224-.673.348-.997.099-.299.223-.598.322-.897.05-.125.099-.25.124-.4a6.9 6.9 0 01.149-.398 1.27 1.27 0 01.571-.623c.198-.1.422-.15.645-.15.174 0 .372.025.546.075.074.025.174.05.248.075 0 4.612-.943 6.207-1.787 8.002-.446.947-1.215 1.695-2.158 2.07-10.324 4.212-53.477 5.16-65.115 5.334-2.507.025-4.69-2.069-4.368-4.562z" fill="#fff"/></svg>